<?xml version="1.0" encoding="UTF-8"?>
<svg width="96px" height="96px" viewBox="0 0 96 96" version="1.1" xmlns="http://www.w3.org/2000/svg" xmlns:xlink="http://www.w3.org/1999/xlink">
    <!-- Generator: Sketch 39.1 (31720) - http://www.bohemiancoding.com/sketch -->
    <title>Group</title>
    <desc>Created with Sketch.</desc>
    <defs></defs>
    <g id="Page-1" stroke="none" stroke-width="1" fill="none" fill-rule="evenodd">
        <g id="Group">
            <rect id="Rectangle-2" fill="#E2E8F0" x="0" y="0" width="96" height="96" rx="4"></rect>
            <g id="img" transform="translate(28.000000, 30.000000)" fill="#FFFFFF">
                <path d="M38.8189215,2.10424788e-06 L2.04679461,2.10424788e-06 C1.50421998,-0.000777691752 0.983601998,0.215204718 0.599669264,0.60035328 C0.21573653,0.985501842 -5.55244529e-07,1.50820637 0,2.05327845 L0,34.8939504 C0,36.024868 0.915209575,36.9442893 2.04387059,36.9442893 L38.8189215,36.9442893 C39.3612267,36.9458503 39.8818531,36.7305224 40.2658706,36.34584 C40.6498881,35.9611575 40.8657183,35.4387535 40.8657161,34.8939504 L40.8657161,2.05327845 C40.8657166,1.50820638 40.6499796,0.985501854 40.2660468,0.600353293 C39.8821141,0.215204732 39.3614961,-0.000777681844 38.8189215,2.10424788e-06 L38.8189215,2.10424788e-06 Z M34.7370283,30.7844602 L6.12868783,30.7844602 L6.12868783,20.5268908 L12.2602996,14.3699992 L22.4738047,24.6334435 L28.6024925,18.4736144 L34.7341043,24.6334435 L34.7341043,30.7903351 L34.7370283,30.7844602 Z M30.6434391,14.3699992 C28.3866494,14.3699992 26.5571599,12.5320905 26.5571599,10.2649152 C26.5571599,7.99773989 28.3866494,6.15983118 30.6434391,6.15983118 C32.9002287,6.15983122 34.7297182,7.99773991 34.7297182,10.2649152 C34.7297182,12.5320904 32.9002287,14.3699991 30.6434391,14.3699992 L30.6434391,14.3699992 Z" id="Shape"></path>
            </g>
        </g>
    </g>
</svg>
